inDegrees=no
num_controls=7
num_derivatives=13
num_iterations=121
num_multipliers=7
num_parameters=0
num_slacks=7
num_states=26
objective=5.968228
objective_accelerations=1.015118
objective_balance=0.026132
objective_effort=0.676683
objective_height=4.142685
objective_ligament=0.107610
solver_duration=1141.760857
status=Solve_Succeeded
success=true
DataType=double
version=3
OpenSimVersion=4.4-2022-07-23-0e9fedc
endheader
time	/jointset/ground_pelvis/pelvis_tilt/value	/jointset/ground_pelvis/pelvis_tx/value	/jointset/ground_pelvis/pelvis_ty/value	/jointset/hip_l/hip_flexion_l/value	/jointset/hip_l/hip_adduction_l/value	/jointset/hip_l/hip_rotation_l/value	/jointset/back/lumbar_extension/value	/jointset/patellofemoral_l/patellar_flexion_l/value	/jointset/knee_l/knee_flexion_l/value	/jointset/knee_l/knee_adduction_l/value	/jointset/knee_l/knee_rotation_l/value	/jointset/ankle_l/ankle_angle_l/value	/jointset/subtalar_l/subtalar_angle_l/value	/jointset/ground_pelvis/pelvis_tilt/speed	/jointset/ground_pelvis/pelvis_tx/speed	/jointset/ground_pelvis/pelvis_ty/speed	/jointset/hip_l/hip_flexion_l/speed	/jointset/hip_l/hip_adduction_l/speed	/jointset/hip_l/hip_rotation_l/speed	/jointset/back/lumbar_extension/speed	/jointset/patellofemoral_l/patellar_flexion_l/speed	/jointset/knee_l/knee_flexion_l/speed	/jointset/knee_l/knee_adduction_l/speed	/jointset/knee_l/knee_rotation_l/speed	/jointset/ankle_l/ankle_angle_l/speed	/jointset/subtalar_l/subtalar_angle_l/speed	/forceset/tau_hip_flexion_l	/forceset/tau_hip_adduction_l	/forceset/tau_hip_rotation_l	/forceset/tau_knee_flexion_l	/forceset/tau_ankle_angle_l	/forceset/tau_subtalar_angle_l	/forceset/tau_lumbar_extension	lambda_cid13_p0	lambda_cid13_p1	lambda_cid13_p2	lambda_cid13_p3	lambda_cid13_p4	lambda_cid13_p5	lambda_cid14_p0	/jointset/ground_pelvis/pelvis_tilt/accel	/jointset/ground_pelvis/pelvis_tx/accel	/jointset/ground_pelvis/pelvis_ty/accel	/jointset/hip_l/hip_flexion_l/accel	/jointset/hip_l/hip_adduction_l/accel	/jointset/hip_l/hip_rotation_l/accel	/jointset/back/lumbar_extension/accel	/jointset/patellofemoral_l/patellar_flexion_l/accel	/jointset/knee_l/knee_flexion_l/accel	/jointset/knee_l/knee_adduction_l/accel	/jointset/knee_l/knee_rotation_l/accel	/jointset/ankle_l/ankle_angle_l/accel	/jointset/subtalar_l/subtalar_angle_l/accel	gamma_cid13_p0	gamma_cid13_p1	gamma_cid13_p2	gamma_cid13_p3	gamma_cid13_p4	gamma_cid13_p5	gamma_cid14_p0
1	-0.08612589315600692	-0.07406730410949447	0.4195036496899403	2.089793601749198	-0.2947864700229948	0.1224055917354128	-0.9598741924963591	2.092834443006687	2.092834443006695	0.1744642620713092	-0.174377655505433	0.2363824056382672	0.08834790092450143	0.02370091158577098	-0.002793306755037851	0.07437891346507725	-0.2687430857563678	-0.01843526804832212	-0.05559841154987795	0.0005121093324916589	-0.1555586902053367	-0.1555586902053366	-0.0138278697310849	0.0005041820244945921	0.08303777004184776	0.01537842376866081	-0.3777295859350895	-0.04539199463150115	-0.0626924525475398	-0.4465252268140316	0.1151951387486267	0.001410329953396808	0.4361444682875666	-21.02790018903974	12.23849553384232	-12.87885452004688	34.99212917851409	-861.3921427815761	-36.29172382673287	-0.02282069653591391	-1.183660890319792	-0.8564958005839608	2.731858626897014	-7.736723118276291	-0.3355173849539003	-1.836189434769651	-0.01723206807130323	-7.783140898758749	-7.783140898758278	-1.357901956113056	0.03008235538474776	0.6603921559147761	-0.0952470572020134	2.770108687677664e-08	-1.083288852088663e-08	-3.369255493516487e-07	-4.33421098576288e-08	-7.84018548900762e-08	-4.797233567642e-07	4.061005795654915e-08
1.01	-0.08594749188971951	-0.07413783723256469	0.4203842942620227	2.086718264072218	-0.2949862095509599	0.1217626685672625	-0.9598700482016677	2.090889434689843	2.090889434689861	0.1742543299909286	-0.1743708309330579	0.2372460847466747	0.08849875026667205	0.0120377640391132	-0.01128425621797166	0.1017677934361221	-0.3463538584999684	-0.02149735853634894	-0.07293577248676515	0.0003215114161907468	-0.2334564809744459	-0.2334564809744366	-0.02819754785637962	0.0008424949830256018	0.08965555324769885	0.01479047246713831	-0.3781320275225665	-0.04522534670065383	-0.06258952483141773	-0.447767033949634	0.1157470961634639	0.001706676403439826	0.4369068063683307	-20.87342323600359	12.09058482983068	-12.86422916897165	34.46324485944489	-862.2789902765214	-36.64178687185364	-0.02295746664331419	-1.148875735756188	-0.8410514571872851	2.745046767839196	-7.777663728168157	-0.2891858219271353	-1.674936276197964	-0.01925939717459973	-7.795136738958535	-7.795136738956583	-1.482296379093643	0.03285539888690669	0.6560960884816169	-0.04065032217865977	4.701798079790855e-08	-5.523129657679487e-08	-4.703394449437509e-07	-8.054149674770635e-08	-1.234783217197189e-07	-7.701891392154997e-07	6.179341292373788e-08
1.02	-0.08588396890882709	-0.07429241123786937	0.4215393564509443	2.082865936792615	-0.2952160961719784	0.1209478864194847	-0.9598676670343995	2.088165040750714	2.08816504075072	0.1738995420016202	-0.1743611933047391	0.2381746666242234	0.08864370386471578	0.0007252545358898816	-0.01960148320193209	0.1292624368328997	-0.4241410062741258	-0.0244646866723647	-0.08997020754559416	0.000159483749450227	-0.3114358146624345	-0.3114358146624193	-0.04279905151598622	0.001066793253617128	0.09601832387598835	0.0141992749436436	-0.3785344691098413	-0.04505869876944334	-0.06248659711527423	-0.4490088410852387	0.1162990535782908	0.002003022853949993	0.4376691444493041	-20.70713920821397	11.94083142605587	-12.84956644594723	33.92904613046458	-862.9878006960319	-36.95718651650225	-0.02316129643087503	-1.113533281632353	-0.8217513047895449	2.753011312043433	-7.771998124387685	-0.3165649145514791	-1.775604259158228	-0.01151801816204135	-7.799449482534559	-7.799449482534763	-1.404267062975094	0.007279417797227588	0.6093896404017574	-0.09589630159647121	6.897510342251692e-08	-1.158998163415362e-07	-6.393515826450895e-07	-1.112884937994773e-07	-1.683241963255369e-07	-1.193139710439826e-06	9.421488717269641e-08
1.03	-0.08593136883185148	-0.07452911050495115	0.4229698924071436	2.078234919501806	-0.2954751549767414	0.1199644311735172	-0.9598669171329011	2.084660676120541	2.084660676120524	0.1733975618219261	-0.1743499475419968	0.2391653313467051	0.0887826394231381	-0.01010142336147866	-0.02769164134495506	0.1568629531007589	-0.5020910776581327	-0.02732597291887919	-0.1066801675676005	-2.13906269145301e-05	-0.3894288242041535	-0.3894288242041496	-0.05761286797138078	0.001172481574113989	0.1020483590212613	0.01358345784551724	-0.3790570954394826	-0.04483878208792619	-0.06224256351110083	-0.4505282267167387	0.1173417791421568	0.00244393613502195	0.4386059681050851	-20.37533031604431	11.6918918766244	-12.8106171176253	33.05489111349863	-863.8724093731379	-37.4782990654965	-0.02340681538889842	-1.051653711147019	-0.7956673189290083	2.766258682709863	-7.810797598748551	-0.2676194804498155	-1.612573706412301	-0.02315523170406508	-7.798009162090541	-7.798009162091189	-1.522217701386074	0.01052548858902017	0.5898701605419927	-0.04495691362104167	9.095916715634445e-08	-1.767343576543269e-07	-8.087269677148897e-07	-1.419696501386124e-07	-2.131677179494791e-07	-1.617442167263878e-06	1.267510361082037e-07
1.04	-0.08608391926746832	-0.07484531520343424	0.4246769709057348	2.072823544306377	-0.2957621684440674	0.1188150999610421	-0.9598683325915599	2.080376624900532	2.08037662490052	0.1727469877259241	-0.1743379825062731	0.2402143083624159	0.08891531031063797	-0.02030484795302812	-0.03550256948219672	0.184570945311255	-0.5802125871756932	-0.03005561919526114	-0.123145400897211	-0.0002735883762863482	-0.4673731326298887	-0.4673731326298907	-0.07251783500946181	0.001210647871194208	0.107680782524602	0.01294634075945012	-0.3795797217691723	-0.04461886540629404	-0.06199852990527515	-0.4520476123482703	0.1183845047060383	0.002884849416232861	0.4395427917608049	-20.03222041736301	11.44042297238375	-12.77063543589747	32.1772765488877	-864.5855418172132	-37.9704344521223	-0.02371686669780307	-0.9888826204682988	-0.7659053036334241	2.774506500570756	-7.806285751098586	-0.2902369205247806	-1.726658920678696	-0.02578269276369746	-7.789709259337759	-7.789709259336891	-1.422497179512553	-0.006224986885831214	0.5298673120149838	-0.1001562991844325	1.142242149486225e-07	-2.408639175567681e-07	-9.786641004711134e-07	-1.733574201877288e-07	-2.548095619153518e-07	-2.05126521332758e-06	1.60437929455712e-07
1.05	-0.08633529085476323	-0.07523806735250854	0.4266615892071568	2.06663065194375	-0.2960757978052144	0.1175024509849014	-0.9598723788350577	2.075313609449465	2.07531360944944	0.1719469165363286	-0.1743260228481279	0.2413172051759331	0.08904134094061465	-0.02985605286379888	-0.04298497827066365	0.2123638247463328	-0.6583463366310844	-0.03264236538791986	-0.1393485173986129	-0.0005238725008172387	-0.54520068300089	-0.5452006830009184	-0.0874944567889929	0.001178302336619331	0.1127954213983761	0.012247104880728	-0.3801464186046686	-0.04434633257645278	-0.06160644090185116	-0.4538098703809332	0.1199056896524968	0.003465625846082573	0.4406174687810894	-19.52305025994298	11.09085781809063	-12.70555954251136	30.97466494465358	-865.3903912999411	-38.66174580056336	-0.02407112554534424	-0.9212109989087738	-0.7300176279444545	2.783285440988445	-7.813972625556312	-0.2385363359890903	-1.56172519561828	-0.02288309980579499	-7.774925911135143	-7.774925911138888	-1.534799042758879	-0.002485451136626808	0.4867870581127062	-0.05652413277240588	1.375292934927271e-07	-3.050964467901357e-07	-1.148618787842538e-06	-2.04767271915282e-07	-2.963513534544098e-07	-2.485385777805021e-06	1.941607835660954e-07
1.06	-0.08667876880580529	-0.07570376538176271	0.4289244576581348	2.059657011469891	-0.296414423201717	0.1160288534077573	-0.9598785742847947	2.069473188897657	2.069473188897649	0.1709971682571015	-0.1743145358682403	0.2424681533547946	0.0891600358316922	-0.03872612067553743	-0.05009174551817037	0.2402209752224135	-0.7363622093982597	-0.03505482627459224	-0.1553351211299041	-0.0007034297254464056	-0.6228541527780599	-0.6228541527781195	-0.1024532531920559	0.001116112226361561	0.1172910555943076	0.01147919297981422	-0.3807131154402433	-0.04407379974664298	-0.06121435189655158	-0.4555721284136336	0.1214268745989505	0.004046402275870142	0.4416921458012603	-19.00343059609826	10.7381350871237	-12.63846320672008	29.77266550688736	-866.0343558415416	-39.32983878793172	-0.02448588934012517	-0.8526552006619286	-0.6907769954413989	2.787360708771319	-7.78271041345565	-0.2553798593273276	-1.683356366655845	-0.01163731278097853	-7.75489314057138	-7.7548931405715	-1.418932104219376	-0.01219390202215172	0.4060663764465261	-0.1138915036223748	1.584086463157235e-07	-3.698944422448686e-07	-1.311764927969175e-06	-2.284085697962579e-07	-3.299782397359218e-07	-2.903258627080705e-06	2.272189705289402e-07
1.07	-0.08710713932421606	-0.07623848798451767	0.431466179123034	2.051903920380798	-0.2967763306781556	0.1143967833842486	-0.9598863110089532	2.062857350481912	2.062857350481883	0.1698977127831924	-0.1743039791133675	0.2436606961179832	0.08927054469977243	-0.04679441379224093	-0.05677402361521731	0.268131296407531	-0.8142340802418374	-0.03729531914732129	-0.1710240137176305	-0.0008436094381955028	-0.7002632414947999	-0.700263241494909	-0.1174423422771257	0.0009886925248043209	0.1210936739215612	0.01060436191638416	-0.3813574486860248	-0.04374026978546402	-0.06066524770765518	-0.4575101812593181	0.1233645608546877	0.004753818226181789	0.4428894131507237	-18.33654647968973	10.29564348038951	-12.54679316015401	28.26565614680974	-866.7365378764545	-40.17386524874455	-0.02493763648293466	-0.760857580094463	-0.6451911597446667	2.793991514522039	-7.786114404083671	-0.2034618019399728	-1.503377603220525	-0.01516244451780385	-7.726425920832379	-7.726425920839152	-1.539371732759751	-0.01438558736393817	0.3487837061204402	-0.07676718275273837	1.791589711748312e-07	-4.347225156900996e-07	-1.474548911327472e-06	-2.516366467279477e-07	-3.631841204186281e-07	-3.320267236186082e-06	2.602418028562775e-07
1.08	-0.08761158101648717	-0.07683768095682195	0.4342872285380149	2.04337277278628	-0.2971596586434412	0.1126094800552723	-0.9598954403584019	2.055468919342279	2.055468919342293	0.1686482715351862	-0.1742949704721256	0.2448875498934966	0.08937180760220856	-0.05394035542564109	-0.06298581942804067	0.2960865652387034	-0.8919735104563389	-0.03933892404772758	-0.1863817822409328	-0.0009819549105725997	-0.7773726975558367	-0.7773726975559971	-0.1324504082466545	0.000806489497632891	0.124153258059042	0.009629999851027672	-0.382001781932	-0.04340673982439677	-0.0601161435170028	-0.4594482341050317	0.1253022471104427	0.00546123417633678	0.4440866804999661	-17.66044357141851	9.849348040815313	-12.45201525069679	26.76495352909785	-867.2932978701008	-41.00138466981875	-0.02544421094799795	-0.6681849040015706	-0.5966805385965857	2.796350237982281	-7.756222287640673	-0.2160022648625652	-1.617131553770099	-0.01127046470116171	-7.69496660943063	-7.694966609431124	-1.422727481111807	-0.02315056714471231	0.2574595384923394	-0.1337977040070883	1.998420270291559e-07	-5.020653579048267e-07	-1.635151157678656e-06	-2.720468216543805e-07	-3.89512024442648e-07	-3.736130368667999e-06	2.938326731321483e-07
